<?xml version="1.0" standalone="no"?>
<!DOCTYPE svg PUBLIC "-//W3C//DTD SVG 20010904//EN"
 "http://www.w3.org/TR/2001/REC-SVG-20010904/DTD/svg10.dtd">
<svg version="1.0" xmlns="http://www.w3.org/2000/svg"
 width="523.000000pt" height="523.000000pt" viewBox="0 0 523.000000 523.000000"
 preserveAspectRatio="xMidYMid meet">
<metadata>
Created by potrace 1.11, written by Peter Selinger 2001-2013
</metadata>
<g transform="translate(0.000000,523.000000) scale(0.100000,-0.100000)"
fill="#000000" stroke="none">
<path d="M2310 5215 c-58 -7 -130 -18 -160 -24 -30 -6 -66 -13 -79 -16 -224
-43 -543 -165 -758 -290 -96 -56 -259 -165 -305 -204 -195 -162 -311 -277
-429 -423 -284 -353 -465 -755 -544 -1208 -24 -133 -28 -188 -30 -390 -4 -306
16 -476 86 -733 258 -944 1024 -1668 1979 -1871 207 -44 287 -51 565 -51 287
1 468 26 721 100 823 242 1483 886 1749 1705 40 123 89 337 101 435 3 33 9 69
11 80 10 43 12 465 2 555 -111 1056 -840 1936 -1859 2243 -63 19 -140 40 -170
46 -30 6 -66 14 -80 17 -193 40 -588 55 -800 29z"/>
</g>
</svg>
