<?xml version="1.0" standalone="no"?>
<!DOCTYPE svg PUBLIC "-//W3C//DTD SVG 20010904//EN"
 "http://www.w3.org/TR/2001/REC-SVG-20010904/DTD/svg10.dtd">
<svg version="1.0" xmlns="http://www.w3.org/2000/svg"
 width="700.000000pt" height="700.000000pt" viewBox="0 0 700.000000 700.000000"
 preserveAspectRatio="xMidYMid meet">
<metadata>
Created by potrace 1.11, written by Peter Selinger 2001-2013
</metadata>
<g transform="translate(0.000000,700.000000) scale(0.100000,-0.100000)"
fill="#000000" stroke="none">
<path d="M3200 6990 c-124 -13 -194 -21 -210 -25 -8 -2 -37 -7 -65 -11 -27 -3
-52 -8 -55 -9 -3 -2 -24 -6 -47 -10 -143 -21 -405 -98 -618 -182 -173 -69
-468 -216 -516 -259 -8 -8 -19 -14 -23 -14 -12 0 -150 -95 -271 -185 -643
-482 -1108 -1189 -1297 -1970 -10 -43 -11 -44 -33 -155 -22 -114 -24 -126 -40
-255 -27 -220 -27 -664 0 -826 2 -13 6 -46 9 -74 9 -78 23 -156 51 -285 23
-107 88 -333 114 -395 5 -11 26 -65 46 -120 53 -138 160 -358 239 -489 36 -60
66 -113 66 -117 0 -4 3 -9 8 -11 4 -2 29 -36 57 -77 40 -61 93 -132 142 -196
145 -185 364 -403 573 -570 92 -74 370 -265 386 -265 4 0 15 -6 23 -14 27 -23
260 -140 392 -196 281 -120 597 -208 874 -245 22 -2 56 -7 75 -10 193 -27 658
-27 850 1 346 50 626 124 907 240 962 395 1706 1213 2011 2209 43 141 94 362
112 490 6 44 13 91 15 105 23 139 27 654 6 815 -37 293 -74 459 -159 720 -222
686 -695 1325 -1297 1752 -94 66 -260 173 -269 173 -2 0 -37 19 -78 43 -156
90 -393 192 -607 261 -101 33 -310 87 -381 100 -32 5 -99 18 -125 23 -11 2
-56 8 -100 13 -44 6 -96 13 -115 16 -58 9 -569 12 -650 4z"/>
</g>
</svg>
